<svg xmlns="http://www.w3.org/2000/svg" width="297.046" height="69.693" viewBox="0 0 297.046 69.693">
  <defs>
    <style>
      .cls-1 {
        fill: #fff;
      }
    </style>
  </defs>
  <g id="JP_LOGO-04" data-name="JP LOGO-04" transform="translate(-56.7 -29.6)">
    <g id="Group_17" data-name="Group 17" transform="translate(141.362 45.242)">
      <g id="Group_1" data-name="Group 1" transform="translate(0 0.135)">
        <path id="Path_1" data-name="Path 1" d="M434.771,99.8v1.281h5.147V109.6c0,2.068-.876,3.1-2.607,3.1a3.483,3.483,0,0,1-3.034-1.753l-.876,1.011a5.01,5.01,0,0,0,1.641,1.506,5.077,5.077,0,0,0,2.247.517,3.978,3.978,0,0,0,3.057-1.1,4.759,4.759,0,0,0,1.034-3.326V99.8Z" transform="translate(-433.4 -99.8)"/>
      </g>
      <g id="Group_2" data-name="Group 2" transform="translate(19.013 0)">
        <path id="Path_2" data-name="Path 2" d="M531.8,102.706a6.7,6.7,0,0,0-2.63-2.562,7.838,7.838,0,0,0-3.776-.944,7.74,7.74,0,0,0-3.8.944,6.768,6.768,0,0,0-2.652,2.562,7.4,7.4,0,0,0-.944,3.663,7.15,7.15,0,0,0,.944,3.641,6.764,6.764,0,0,0,2.652,2.562,7.862,7.862,0,0,0,3.8.944,7.716,7.716,0,0,0,3.776-.944,6.7,6.7,0,0,0,2.63-2.562,7.166,7.166,0,0,0,.966-3.641A7.418,7.418,0,0,0,531.8,102.706Zm-1.281,6.652a5.651,5.651,0,0,1-2.113,2.068,5.829,5.829,0,0,1-3.012.764,6.087,6.087,0,0,1-3.034-.764,5.2,5.2,0,0,1-2.113-2.068,5.938,5.938,0,0,1-.787-2.989,6.021,6.021,0,0,1,.787-3.012,5.343,5.343,0,0,1,2.113-2.068,6.028,6.028,0,0,1,3.034-.764,5.944,5.944,0,0,1,3.012.764,5.651,5.651,0,0,1,2.113,2.068,6.18,6.18,0,0,1,.764,3.012A6.094,6.094,0,0,1,530.518,109.358Z" transform="translate(-518 -99.2)"/>
      </g>
      <g id="Group_3" data-name="Group 3" transform="translate(42.477 0.135)">
        <path id="Path_3" data-name="Path 3" d="M630.289,99.8h-1.461L622.4,113.869h1.551l1.686-3.776h7.821l1.708,3.776h1.551Zm-4.113,9.08,3.371-7.529,3.371,7.529Z" transform="translate(-622.4 -99.8)"/>
      </g>
      <g id="Group_4" data-name="Group 4" transform="translate(66.952 0.135)">
        <path id="Path_4" data-name="Path 4" d="M741.571,99.8v11.395L732.536,99.8H731.3v14.069h1.483V102.474l9.035,11.395h1.236V99.8Z" transform="translate(-731.3 -99.8)"/>
      </g>
      <g id="Group_5" data-name="Group 5" transform="translate(91.112 0.135)">
        <path id="Path_5" data-name="Path 5" d="M849.071,99.8v11.395L840.036,99.8H838.8v14.069h1.483V102.474l9.035,11.395h1.236V99.8Z" transform="translate(-838.8 -99.8)"/>
      </g>
      <g id="Group_6" data-name="Group 6" transform="translate(113.002 0.135)">
        <path id="Path_6" data-name="Path 6" d="M944.111,99.8h-1.483L936.2,113.869h1.551l1.708-3.776h7.821l1.686,3.776h1.573ZM940,108.88l3.371-7.529,3.371,7.529Z" transform="translate(-936.2 -99.8)"/>
      </g>
      <g id="Group_7" data-name="Group 7" transform="translate(2.382 24.25)">
        <path id="Path_7" data-name="Path 7" d="M453.462,208.381a6.409,6.409,0,0,0-4.225-1.281H444v14.047h1.483v-4.427h3.776a6.409,6.409,0,0,0,4.225-1.281,4.339,4.339,0,0,0,1.528-3.529A4.454,4.454,0,0,0,453.462,208.381Zm-1.079,6.091a4.885,4.885,0,0,1-3.169.921h-3.753v-7.012h3.753a4.759,4.759,0,0,1,3.169.921,3.178,3.178,0,0,1,1.1,2.607A3.117,3.117,0,0,1,452.383,214.472Z" transform="translate(-444 -207.1)"/>
      </g>
      <g id="Group_8" data-name="Group 8" transform="translate(24.407 24.25)">
        <path id="Path_8" data-name="Path 8" d="M542,207.1v14.047h1.483V207.1Z" transform="translate(-542 -207.1)"/>
      </g>
      <g id="Group_9" data-name="Group 9" transform="translate(37.06 24.115)">
        <path id="Path_9" data-name="Path 9" d="M612.1,209.984a6.857,6.857,0,0,0-2.63-2.562,7.824,7.824,0,0,0-3.776-.921,7.5,7.5,0,0,0-3.8.944,6.764,6.764,0,0,0-2.652,2.562,7.318,7.318,0,0,0-.944,3.641,7.091,7.091,0,0,0,.944,3.641,6.764,6.764,0,0,0,2.652,2.562,7.618,7.618,0,0,0,3.8.944,7.7,7.7,0,0,0,3.776-.921,6.857,6.857,0,0,0,2.63-2.562,7.427,7.427,0,0,0,0-7.327Zm-1.281,6.652a5.713,5.713,0,0,1-2.113,2.09,6.043,6.043,0,0,1-3.012.742,6.252,6.252,0,0,1-3.034-.742,5.551,5.551,0,0,1-2.113-2.09,5.76,5.76,0,0,1-.787-2.989,5.818,5.818,0,0,1,.787-2.989,5.55,5.55,0,0,1,2.113-2.09,6.252,6.252,0,0,1,3.034-.742,6.1,6.1,0,0,1,3.012.742,5.4,5.4,0,0,1,2.113,2.09,5.97,5.97,0,0,1,.764,2.989A6.031,6.031,0,0,1,610.818,216.636Z" transform="translate(-598.3 -206.5)"/>
      </g>
      <g id="Group_10" data-name="Group 10" transform="translate(60.591 24.25)">
        <path id="Path_10" data-name="Path 10" d="M703,207.1v1.281h4.922v12.766h1.506V208.381h4.922V207.1Z" transform="translate(-703 -207.1)"/>
      </g>
      <g id="Group_11" data-name="Group 11" transform="translate(82.144 24.25)">
        <path id="Path_11" data-name="Path 11" d="M806.7,216.337a4.376,4.376,0,0,0,3.191-4.427,4.4,4.4,0,0,0-1.528-3.529,6.3,6.3,0,0,0-4.2-1.281H798.9v14.047h1.506V216.7h3.776a9.026,9.026,0,0,0,1.124-.045l3.191,4.517h1.618Zm-2.585-.921h-3.708v-7.035h3.708a4.745,4.745,0,0,1,3.191.921,3.61,3.61,0,0,1,0,5.192A4.91,4.91,0,0,1,804.114,215.416Z" transform="translate(-798.9 -207.1)"/>
      </g>
      <g id="Group_12" data-name="Group 12" transform="translate(103.225 24.115)">
        <path id="Path_12" data-name="Path 12" d="M906.5,209.984a6.705,6.705,0,0,0-2.63-2.562,7.7,7.7,0,0,0-3.776-.921,7.479,7.479,0,0,0-3.776.944,6.764,6.764,0,0,0-2.652,2.562,7.107,7.107,0,0,0-.966,3.641,6.9,6.9,0,0,0,.966,3.641,6.765,6.765,0,0,0,2.652,2.562,8.109,8.109,0,0,0,7.551.022,6.705,6.705,0,0,0,2.63-2.562,6.788,6.788,0,0,0,.989-3.663A6.99,6.99,0,0,0,906.5,209.984Zm-1.281,6.652a5.652,5.652,0,0,1-2.09,2.09,6.252,6.252,0,0,1-3.034.742,6.1,6.1,0,0,1-3.012-.742,5.612,5.612,0,0,1-2.135-2.09,6.229,6.229,0,0,1,0-5.978,5.609,5.609,0,0,1,2.135-2.09,6.043,6.043,0,0,1,3.012-.742,6.252,6.252,0,0,1,3.034.742,5.491,5.491,0,0,1,2.09,2.09,6.229,6.229,0,0,1,0,5.978Z" transform="translate(-892.7 -206.5)"/>
      </g>
      <g id="Group_13" data-name="Group 13" transform="translate(127.206 24.25)">
        <path id="Path_13" data-name="Path 13" d="M1018.818,207.1l-4.135,12.136-4.135-12.136h-1.371L1005,219.169l-4.068-12.069H999.4l4.742,14.047h1.528l4.135-11.956,4.113,11.956h1.573l4.72-14.047Z" transform="translate(-999.4 -207.1)"/>
      </g>
      <g id="Group_14" data-name="Group 14" transform="translate(157.254 24.115)">
        <path id="Path_14" data-name="Path 14" d="M1142.876,214.928a4.053,4.053,0,0,0-1.618-1.124,19.362,19.362,0,0,0-2.495-.742q-1.315-.337-2.09-.607a3.3,3.3,0,0,1-1.281-.764,1.866,1.866,0,0,1-.517-1.348,2.191,2.191,0,0,1,.944-1.843,4.586,4.586,0,0,1,2.787-.719,6.915,6.915,0,0,1,1.978.292,7.965,7.965,0,0,1,1.888.854l.495-1.191a6.558,6.558,0,0,0-2-.921,8.3,8.3,0,0,0-2.36-.315,7.159,7.159,0,0,0-2.877.517A3.761,3.761,0,0,0,1134,208.41a3.181,3.181,0,0,0-.562,1.91,2.975,2.975,0,0,0,.674,2.068,4.053,4.053,0,0,0,1.618,1.124,20.825,20.825,0,0,0,2.54.787c.854.2,1.551.4,2.068.584a3.4,3.4,0,0,1,1.236.764,1.829,1.829,0,0,1,.517,1.348,2.141,2.141,0,0,1-.944,1.8,4.7,4.7,0,0,1-2.832.7,7.426,7.426,0,0,1-2.607-.472,5.73,5.73,0,0,1-2.023-1.236l-.584,1.124a5.577,5.577,0,0,0,2.225,1.326,9.1,9.1,0,0,0,3.012.494,7.352,7.352,0,0,0,2.9-.517,3.829,3.829,0,0,0,1.776-1.371,3.579,3.579,0,0,0,.562-1.91A3.038,3.038,0,0,0,1142.876,214.928Z" transform="translate(-1133.1 -206.5)"/>
      </g>
      <g id="Group_15" data-name="Group 15" transform="translate(178.74 24.228)">
        <path id="Path_15" data-name="Path 15" d="M1234.071,213.36l6.091-6.36h-1.708l-8.271,8.5V207H1228.7v14.047h1.483v-3.686l2.877-2.9,5.731,6.607h1.776Z" transform="translate(-1228.7 -207)"/>
      </g>
      <g id="Group_16" data-name="Group 16" transform="translate(198.046 24.25)">
        <path id="Path_16" data-name="Path 16" d="M1322.511,207.1h-1.483l-6.428,14.047h1.551l1.708-3.753h7.821l1.686,3.753h1.573Zm-4.113,9.08,3.371-7.551,3.371,7.551Z" transform="translate(-1314.6 -207.1)"/>
      </g>
    </g>
    <g id="Group_24" data-name="Group 24" transform="translate(56.7 29.6)">
      <g id="Group_18" data-name="Group 18" transform="translate(0)">
        <rect id="Rectangle_1" data-name="Rectangle 1" class="cls-1" width="9.327" height="1.483" transform="translate(19.643 27.509)"/>
        <path id="Path_17" data-name="Path 17" class="cls-1" d="M158.071,155.3h1.483v13.238a9.327,9.327,0,0,1-18.654,0h1.483a7.866,7.866,0,0,0,15.732,0V155.3Z" transform="translate(-121.976 -127.05)"/>
        <path id="Path_18" data-name="Path 18" class="cls-1" d="M218.454,123.049a9.333,9.333,0,0,1-9.327,9.327h-.719v-1.483h.719a7.866,7.866,0,1,0,0-15.732h-7.844v21.1H199.8V113.7h9.327A9.352,9.352,0,0,1,218.454,123.049Z" transform="translate(-167.639 -94.799)"/>
        <path id="Path_19" data-name="Path 19" class="cls-1" d="M94.039,32.9a34.116,34.116,0,1,0,34.139,34.139A34.137,34.137,0,0,0,94.039,32.9Zm0,67.491a33.386,33.386,0,1,1,33.4-33.375A33.441,33.441,0,0,1,94.039,100.391Z" transform="translate(-59.181 -32.158)"/>
        <path id="Path_20" data-name="Path 20" d="M91.558,29.6a34.847,34.847,0,1,0,34.858,34.858A34.89,34.89,0,0,0,91.558,29.6Zm0,68.233a33.386,33.386,0,1,1,33.4-33.375A33.441,33.441,0,0,1,91.558,97.833Z" transform="translate(-56.7 -29.6)"/>
      </g>
      <g id="Group_23" data-name="Group 23" transform="translate(18.901 18.879)">
        <g id="Group_19" data-name="Group 19" transform="translate(0.742 8.63)">
          <rect id="Rectangle_2" data-name="Rectangle 2" width="9.327" height="1.483"/>
        </g>
        <g id="Group_20" data-name="Group 20" transform="translate(0 9.372)">
          <path id="Path_21" data-name="Path 21" d="M159.454,155.3v13.238a9.327,9.327,0,0,1-18.654,0h1.483a7.866,7.866,0,0,0,15.732,0V155.3Z" transform="translate(-140.8 -155.3)"/>
        </g>
        <g id="Group_21" data-name="Group 21" transform="translate(21.868)">
          <path id="Path_22" data-name="Path 22" d="M248.146,122.972a9.333,9.333,0,0,1-9.327,9.327H238.1v-1.483h.719a7.866,7.866,0,1,0,0-15.732V113.6A9.386,9.386,0,0,1,248.146,122.972Z" transform="translate(-238.1 -113.6)"/>
        </g>
        <g id="Group_22" data-name="Group 22" transform="translate(13.237 0.022)">
          <path id="Path_23" data-name="Path 23" d="M209.049,113.7v1.483h-7.866v21.1H199.7V113.7Z" transform="translate(-199.7 -113.7)"/>
        </g>
      </g>
    </g>
  </g>
</svg>
